<svg xmlns="http://www.w3.org/2000/svg" viewBox="0 0 41.37 41.37"><defs><style>.cls-1{fill:#fefefe;fill-opacity:0.5;}</style></defs><title>Element 17</title><g id="Ebene_2" data-name="Ebene 2"><g id="Maps_Place_1" data-name="Maps Place #1"><path id="Icon" class="cls-1" d="M20.57,0a20.68,20.68,0,1,0,20.8,20.57A20.68,20.68,0,0,0,20.57,0Zm8.07,25.64a2.07,2.07,0,1,1-2.91,2.94l-4.9-4.84L16,28.64A2.07,2.07,0,1,1,13,25.73l4.84-4.9L13,16A2.07,2.07,0,1,1,15.9,13l4.9,4.84L25.64,13a2.07,2.07,0,1,1,2.94,2.91l-4.84,4.9Z"/></g></g></svg>