<svg xmlns="http://www.w3.org/2000/svg" viewBox="0 0 509.81 505.68"><defs><style>.cls-1{fill:#920203;stroke-width:4px;}.cls-1,.cls-2,.cls-3{stroke:#fdffff;stroke-miterlimit:10;}.cls-2{fill:#fff;}</style></defs><title>Asset 1</title><g id="Layer_2" data-name="Layer 2"><g id="Layer_1-2" data-name="Layer 1"><path class="cls-1" d="M72.58,80l39.31,43.68s-67.7,60.05-49.13,152.86L6,299.48S-22.42,160.81,72.58,80Z"/><path class="cls-1" d="M502.77,302.35,448.3,280.27S467,193.55,401.16,116.54l30.91-47.43S530.91,183.87,502.77,302.35Z"/><path class="cls-1" d="M275.67,448v55.69S422,502.57,488.59,346.43l-51.32-20.75S394.68,431.6,275.67,448Z"/><path class="cls-1" d="M69.74,327.73,16.33,343.5s42.48,140,211.09,159.68l5.36-55.09S119.15,437.24,69.74,327.73Z"/><path class="cls-1" d="M105.33,51.62l39.31,41.49s93.9-76.43,209.64-6.55L401.16,44S258.2-55.38,105.33,51.62Z"/><path class="cls-2" d="M124.56,268.23l22.66,6.25,25-28.12L148.39,140.74s106.32-100,213.81,0l-25,105.62,25,30,19.93-6.87,2.57,18.12-36.87,75-47.5,21.25-12.5,25H221l-11.87-24.37L161,365.73,121.6,282Z"/><path class="cls-3" d="M147.84,288.23S237.21,312,243.46,307.6L236,327.73,201.59,345.1l-37.5-13.75S141.59,301.35,147.84,288.23Z"/><path class="cls-3" d="M362.83,288.23s-95.62,22.5-97.49,20l10.33,19.5,32.79,17.37,38.12-17.37,16.25-25.37Z"/><path class="cls-3" d="M226.59,363.85l8.75,15h40.33l9-15S262.83,327,255.65,332C255.65,332,251.59,321.35,226.59,363.85Z"/></g></g></svg>