<svg xmlns="http://www.w3.org/2000/svg" viewBox="0 0 513.27 576.23"><defs><style>.cls-1{opacity:0.5;}.cls-2{fill:#fff;}.cls-2,.cls-3,.cls-4{stroke:#fdffff;stroke-miterlimit:10;}.cls-4{fill:#920203;stroke-width:4px;}</style></defs><title>Element 1</title><g id="Ebene_2" data-name="Ebene 2"><g id="Ebene_1-2" data-name="Ebene 1"><g id="Layer_2" data-name="Layer 2" class="cls-1"><g id="Layer_1-2" data-name="Layer 1-2"><path class="cls-2" d="M78.89,385.11l30.72,8.47,33.89-38.13L111.2,212.27s144.14-135.56,289.86,0L367.17,355.45,401,396.12l27-9.32,3.49,24.57L381.57,513l-64.39,28.81-16.94,33.89H209.58l-16.1-33-65.23-25.46L74.87,403.74Z"/><path class="cls-3" d="M110.46,412.22S231.61,444.41,240,438.48l-10.17,27.28-46.6,23.55-50.83-18.64S102,430,110.46,412.22Z"/><path class="cls-3" d="M401.91,412.22s-129.63,30.5-132.17,27.11l14,26.44,44.45,23.55,51.68-23.55,22-34.4Z"/><path class="cls-3" d="M217.21,514.73,229,535h54.7l12.3-20.3s-29.65-50-39.4-43.21C256.6,471.52,251,457.12,217.21,514.73Z"/><path class="cls-4" d="M3,87l67.37,71.11s160.94-131,359.3-11.23l80.35-73S265-96.31,3,87Z"/></g></g></g></g></svg>