<svg xmlns="http://www.w3.org/2000/svg" viewBox="0 0 540.14 545.89"><defs><style>.cls-1{fill:#fff;}.cls-1,.cls-2,.cls-3{stroke:#fdffff;stroke-miterlimit:10;}.cls-3{fill:#920203;stroke-width:4px;}</style></defs><title>Asset 1</title><g id="Layer_2" data-name="Layer 2"><g id="Layer_1-2" data-name="Layer 1"><path class="cls-1" d="M96.49,228.07l30,8.27,33.09-37.22L128,59.32S268.76-73,411,59.32L378,199.12,411,238.83l26.37-9.1,3.41,24L392,353l-62.87,28.12L312.6,414.19H224.09l-15.72-32.26-63.69-24.82L92.56,246.27Z"/><path class="cls-2" d="M127.31,254.54S245.6,286,253.87,280.19l-9.93,26.64-45.5,23-49.63-18.2S119,271.92,127.31,254.54Z"/><path class="cls-2" d="M411.87,254.54S285.3,284.32,282.82,281l13.68,25.81,43.4,23,50.46-23,21.51-33.59Z"/><path class="cls-2" d="M231.54,354.64l11.58,19.85H296.5l12-19.85s-29-48.81-38.47-42.19C270,312.45,264.62,298.39,231.54,354.64Z"/><path class="cls-3" d="M296.29,480.79v63.09S462,542.64,537.5,365.75l-58.14-23.5S431.12,462.24,296.29,480.79Z"/><path class="cls-3" d="M63,344.56,2.5,362.43S50.62,521,241.64,543.32l6.08-62.41S119,468.62,63,344.56Z"/></g></g></svg>