<svg xmlns="http://www.w3.org/2000/svg" viewBox="0 0 540.14 545.88"><defs><style>.cls-1{opacity:0.5;}.cls-2{fill:#fff;}.cls-2,.cls-3,.cls-4{stroke:#fdffff;stroke-miterlimit:10;}.cls-4{fill:#920203;stroke-width:4px;}</style></defs><title>Element 1</title><g id="Ebene_2" data-name="Ebene 2"><g id="Ebene_1-2" data-name="Ebene 1"><g id="Layer_2" data-name="Layer 2" class="cls-1"><g id="Layer_1-2" data-name="Layer 1-2"><path class="cls-2" d="M96.49,228.06l30,8.27,33.09-37.22L128,59.31S268.76-73,411,59.31l-33,139.8,33,39.71,26.37-9.1,3.41,24L392,353l-62.87,28.12L312.6,414.18H224.09l-15.72-32.26L144.68,357.1,92.56,246.26Z"/><path class="cls-3" d="M127.31,254.53S245.6,286,253.87,280.18l-9.93,26.64-45.5,23-49.63-18.2S119,271.91,127.31,254.53Z"/><path class="cls-3" d="M411.87,254.53S285.3,284.31,282.82,281L296.5,306.8l43.4,23,50.46-23,21.51-33.59Z"/><path class="cls-3" d="M231.54,354.63l11.58,19.85H296.5l12-19.85s-29-48.81-38.47-42.19C270,312.44,264.62,298.38,231.54,354.63Z"/><path class="cls-4" d="M296.29,480.78v63.09S462,542.63,537.5,365.74l-58.14-23.5S431.12,462.23,296.29,480.78Z"/><path class="cls-4" d="M63,344.55,2.5,362.42S50.62,521,241.64,543.31l6.08-62.41S119,468.61,63,344.55Z"/></g></g></g></g></svg>