<svg xmlns="http://www.w3.org/2000/svg" viewBox="0 0 89.17 96.33"><defs><style>.cls-1{opacity:0.1;}.cls-2{fill:#fff;}.cls-2,.cls-3,.cls-4{stroke:#fdffff;stroke-miterlimit:10;}.cls-4{fill:#920203;stroke-width:4px;}</style></defs><title>Element 9</title><g id="Ebene_2" data-name="Ebene 2"><g id="iMessage_Digital_Touch_2" data-name="iMessage Digital Touch #2"><g id="Layer_2" data-name="Layer 2" class="cls-1"><g id="Layer_1-2" data-name="Layer 1-2"><path class="cls-2" d="M15.45,64.66l5,1.39L26,59.8,20.73,36.39s23.57-22.17,47.4,0L62.6,59.8l5.54,6.65,4.42-1.52.57,4L65,85.58,54.42,90.29l-2.77,5.54H36.82l-2.63-5.4L23.52,86.27,14.79,67.7Z"/><path class="cls-3" d="M20.61,69.09s19.81,5.26,21.19,4.29l-1.66,4.46L32.52,81.7l-8.31-3S19.23,72,20.61,69.09Z"/><path class="cls-3" d="M68.28,69.09s-21.2,5-21.62,4.43L49,77.85l7.27,3.85,8.45-3.85,3.6-5.63Z"/><path class="cls-3" d="M38.07,85.85,40,89.17H49l2-3.32s-4.85-8.18-6.44-7.07C44.51,78.79,43.61,76.43,38.07,85.85Z"/><path class="cls-4" d="M3,15.91l11,11.63S40.39,6.11,72.83,25.7L86,13.76S45.9-14.08,3,15.91Z"/></g></g></g></g></svg>