<svg xmlns="http://www.w3.org/2000/svg" viewBox="0 0 391 353.5"><defs><style>.cls-1{opacity:0.1;}.cls-2{fill:#fff;}.cls-2,.cls-3,.cls-4{stroke:#fdffff;stroke-miterlimit:10;}.cls-4{fill:#920203;stroke-width:4px;}</style></defs><title>Element 1</title><g id="Ebene_2" data-name="Ebene 2"><g id="Ebene_1-2" data-name="Ebene 1"><g id="Layer_2" data-name="Layer 2" class="cls-1"><g id="Layer_1-2" data-name="Layer 1-2"><path class="cls-2" d="M87.9,235.34l19,5.21L127.81,217l-20-88.36s89-83.67,178.92,0L265.84,217l20.92,25.1,16.67-5.75,2.15,15.16L274.71,314.3,235,332.08,224.51,353H168.57l-9.94-20.38-40.27-15.69-33-70.07Z"/><path class="cls-3" d="M107.39,252.07s74.78,19.87,80,16.18l-6.28,16.84-28.77,14.53L121,288.13S102.15,263.05,107.39,252.07Z"/><path class="cls-3" d="M287.3,252.07s-80,18.83-81.58,16.73l8.65,16.31,27.43,14.53,31.9-14.53,13.6-21.2Z"/><path class="cls-3" d="M173.28,315.35l7.34,12.55h33.75l7.55-12.55s-18.3-30.86-24.32-26.67C197.59,288.68,194.19,279.79,173.28,315.35Z"/><path class="cls-4" d="M56,61.69,86.08,95.1s-51.8,45.95-37.6,117L5,229.61S-16.68,123.51,56,61.69Z"/><path class="cls-4" d="M385.14,231.8l-41.67-16.9s14.29-66.35-36.06-125.27l23.64-36.29S406.67,141.15,385.14,231.8Z"/><path class="cls-4" d="M81.06,40l30.08,31.77s71.87-58.5,160.4-5L307.4,34.12S198-41.9,81.06,40Z"/></g></g></g></g></svg>