<svg xmlns="http://www.w3.org/2000/svg" viewBox="0 0 513.26 576.2"><defs><style>.cls-1{fill:#fff;}.cls-1,.cls-2,.cls-3{stroke:#fdffff;stroke-miterlimit:10;}.cls-3{fill:#920203;stroke-width:4px;}</style></defs><title>Asset 2</title><g id="Layer_2" data-name="Layer 2"><g id="Layer_1-2" data-name="Layer 1"><path class="cls-1" d="M78.84,385.08l30.72,8.47,33.89-38.13-32.3-143.18s144.14-135.56,289.86,0L367.12,355.42,401,396.09l27-9.32,3.49,24.57L381.52,513l-64.39,28.81L300.19,575.7H209.53l-16.1-33L128.2,517.24,74.82,403.71Z"/><path class="cls-2" d="M110.41,412.19S231.56,444.38,240,438.45l-10.17,27.28-46.6,23.55-50.83-18.64S101.93,430,110.41,412.19Z"/><path class="cls-2" d="M401.86,412.19s-129.63,30.5-132.17,27.11l14,26.44,44.45,23.55,51.68-23.55,22-34.4Z"/><path class="cls-2" d="M217.16,514.7,229,535H283.7L296,514.7s-29.65-50-39.4-43.21C256.55,471.49,251,457.09,217.16,514.7Z"/><path class="cls-3" d="M3,87l67.37,71.11s160.94-131,359.3-11.23l80.35-73S265-96.34,3,87Z"/></g></g></svg>
