<svg xmlns="http://www.w3.org/2000/svg" viewBox="0 0 163.59 165.25"><defs><style>.cls-1{fill:#d3d3d3;stroke-width:3px;}.cls-1,.cls-2{stroke:#fff;stroke-miterlimit:10;}.cls-2{opacity:0.5;}</style></defs><title>Element 13</title><g id="Ebene_2" data-name="Ebene 2"><g id="Music_Search_1" data-name="Music Search #1"><g id="Layer_2" data-name="Layer 2"><g id="Layer_1-2" data-name="Layer 1-2"><path class="cls-1" d="M29.94,69.44l9,2.47L48.77,60.8,39.34,19.06s42-39.51,84.5,0L114,60.8l9.85,11.86,7.87-2.72,1,7.17-14.56,29.64-18.77,8.4L94.46,125H68l-4.69-9.63-19-7.41L28.76,74.88Z"/><path class="cls-2" d="M39.14,77.35S74.46,86.74,76.93,85l-3,8L60.38,99.83,45.56,94.39S36.66,82.53,39.14,77.35Z"/><path class="cls-2" d="M124.1,77.35s-37.79,8.89-38.53,7.9L89.65,93l13,6.87L117.68,93l6.42-10Z"/><path class="cls-2" d="M70.26,107.23l3.46,5.93H89.65l3.58-5.93s-8.66-14.57-11.49-12.6C81.74,94.64,80.14,90.44,70.26,107.23Z"/><path class="cls-1" d="M89.59,144.9v18.84s49.48-.37,72-53.18l-17.36-7S129.85,139.36,89.59,144.9Z"/><path class="cls-1" d="M19.94,104.22,1.87,109.56s14.37,47.34,71.4,54l1.82-18.63S36.66,141.26,19.94,104.22Z"/></g></g></g></g></svg>