<svg xmlns="http://www.w3.org/2000/svg" viewBox="0 0 649.68 588.12"><defs><style>.cls-1{fill:#fff;}.cls-1,.cls-2,.cls-3{stroke:#fdffff;stroke-miterlimit:10;}.cls-3{fill:#920203;stroke-width:4px;}</style></defs><title>Asset 3</title><g id="Layer_2" data-name="Layer 2"><g id="Layer_1-2" data-name="Layer 1"><path class="cls-1" d="M145.32,391.31,177,400l34.9-39.26L178.59,213.32s148.44-139.6,298.51,0l-34.9,147.45,34.9,41.88,27.82-9.6,3.59,25.3L457,523.06l-66.31,29.66-17.45,34.9H279.91l-16.58-34-67.18-26.17-55-116.91Z"/><path class="cls-2" d="M177.83,419.23s124.77,33.15,133.49,27l-10.47,28.1-48,24.25-52.35-19.19S169.1,437.55,177.83,419.23Z"/><path class="cls-2" d="M478,419.23s-133.49,31.41-136.11,27.92l14.43,27.22,45.77,24.25,53.22-24.25L478,439Z"/><path class="cls-2" d="M287.76,524.8,300,545.74h56.31L368.9,524.8s-30.54-51.48-40.57-44.5C328.33,480.31,322.66,465.47,287.76,524.8Z"/><path class="cls-3" d="M92.1,101.59l50.18,55.75S55.86,234,79.55,352.48L7.07,381.75S-29.17,204.73,92.1,101.59Z"/><path class="cls-3" d="M641.25,385.41l-69.53-28.2s23.84-110.7-60.17-209L551,87.67S677.17,234.16,641.25,385.41Z"/><path class="cls-3" d="M133.91,65.35l50.18,53S304,20.74,451.7,109.95l59.84-54.36S329-71.25,133.91,65.35Z"/></g></g></svg>