<svg xmlns="http://www.w3.org/2000/svg" viewBox="0 0 117.14 116.36"><defs><style>.cls-1{opacity:0.1;}.cls-2{fill:#fff;}.cls-2,.cls-3,.cls-4{stroke:#fdffff;stroke-miterlimit:10;}.cls-4{fill:#920203;stroke-width:4px;}</style></defs><title>Element 10</title><g id="Ebene_2" data-name="Ebene 2"><g id="iMessage_Digital_Touch_2" data-name="iMessage Digital Touch #2"><g id="Layer_2" data-name="Layer 2" class="cls-1"><g id="Layer_1-2" data-name="Layer 1-2"><path class="cls-2" d="M22.18,48.14l6.28,1.73,6.93-7.79L28.77,12.81s29.47-27.7,59.24,0L81.11,42.08,88,50.39l5.52-1.91.71,5L84,74.29,70.88,80.18,67.42,87.1H48.89L45.6,80.35l-13.33-5.2L21.35,51.95Z"/><path class="cls-3" d="M28.63,53.68S53.39,60.27,55.12,59L53,64.63l-9.53,4.81L33.13,65.63S26.89,57.32,28.63,53.68Z"/><path class="cls-3" d="M88.2,53.68s-26.5,6.23-27,5.54L64,64.62l9.09,4.81L83.7,64.62l4.5-7Z"/><path class="cls-3" d="M50.45,74.64l2.42,4.16H64l2.51-4.16s-6.07-10.22-8.05-8.83C58.5,65.8,57.37,62.86,50.45,74.64Z"/><path class="cls-4" d="M64,101v13.21S98.69,114,114.5,77L102.33,72S92.23,97.16,64,101Z"/><path class="cls-4" d="M15.16,72.53,2.5,76.27s10.07,33.2,50.06,37.87l1.27-13.07S26.89,98.5,15.16,72.53Z"/></g></g></g></g></svg>