<svg xmlns="http://www.w3.org/2000/svg" viewBox="0 0 127.78 142.28"><defs><style>.cls-1{fill:#d3d3d3;stroke:#fff;stroke-width:3px;}.cls-1,.cls-2{stroke-miterlimit:10;}.cls-2{stroke:#fdffff;opacity:0.5;}</style></defs><title>Element 12</title><g id="Ebene_2" data-name="Ebene 2"><g id="Maps_Place_1" data-name="Maps Place #1"><g id="Layer_2" data-name="Layer 2"><g id="Layer_1-2" data-name="Layer 1-2"><path class="cls-1" d="M20.7,94.51l7.46,2.06,8.23-9.26L28.54,52.55s35-32.91,70.37,0L90.68,87.31l8.23,9.87,6.55-2.26.85,6L94.18,125.56l-15.63,7-4.11,8.23h-22l-3.91-8-15.84-6.18L19.72,99Z"/><path class="cls-2" d="M28.36,101.09s29.41,7.81,31.46,6.38l-2.47,6.62L46,119.8,33.7,115.28S26.3,105.41,28.36,101.09Z"/><path class="cls-2" d="M99.12,101.09s-31.47,7.4-32.09,6.58l3.4,6.42,10.79,5.72,12.55-5.72,5.34-8.35Z"/><path class="cls-2" d="M54.28,126l2.87,4.93H70.43l3-4.93s-7.2-12.14-9.57-10.49C63.84,115.49,62.49,112,54.28,126Z"/><path class="cls-1" d="M2.29,22.14,18.64,39.41s39.07-31.8,87.23-2.73L125.37,19S65.89-22.37,2.29,22.14Z"/></g></g></g></g></svg>