<svg xmlns="http://www.w3.org/2000/svg" viewBox="0 0 163.07 148.18"><defs><style>.cls-1{fill:#d3d3d3;stroke:#fff;stroke-width:3px;}.cls-1,.cls-2{stroke-miterlimit:10;}.cls-2{stroke:#fdffff;opacity:0.5;}</style></defs><title>Element 14</title><g id="Ebene_2" data-name="Ebene 2"><g id="Maps_Place_1" data-name="Maps Place #1"><g id="Layer_2" data-name="Layer 2"><g id="Layer_1-2" data-name="Layer 1-2"><path class="cls-1" d="M37,98l7.85,2.15,8.65-9.73L45.28,53.89s36.8-34.61,74,0l-8.65,36.55,8.65,10.38,6.9-2.38.89,6.27-12.77,26L97.86,138l-4.33,8.65H70.4l-4.11-8.43-16.65-6.49L36,102.78Z"/><path class="cls-2" d="M45.09,104.94s30.93,8.22,33.09,6.69l-2.6,7-11.9,6-13-4.76S42.93,109.48,45.09,104.94Z"/><path class="cls-2" d="M119.51,104.94s-33.09,7.79-33.74,6.92l3.58,6.75,11.35,6,13.19-6,5.63-8.77Z"/><path class="cls-2" d="M72.34,131.11l3,5.19h14l3.12-5.19s-7.57-12.76-10.06-11C82.4,120.08,81,116.4,72.34,131.11Z"/><path class="cls-1" d="M23.84,26.19,36.28,40S14.85,59,20.73,88.39l-18,7.26S-6.23,51.76,23.84,26.19Z"/><path class="cls-1" d="M160,96.55l-17.24-7s5.91-27.44-14.92-51.81l9.78-15S168.88,59.06,160,96.55Z"/><path class="cls-1" d="M34.2,17.21,46.64,30.34S76.37,6.15,113,28.26l14.84-13.48S82.57-16.66,34.2,17.21Z"/></g></g></g></g></svg>