<svg xmlns="http://www.w3.org/2000/svg" viewBox="0 0 73.28 78.34"><defs><style>.cls-1{opacity:0.5;}.cls-2{fill:#fff;}.cls-2,.cls-3,.cls-4{stroke:#fdffff;stroke-miterlimit:10;}.cls-4{fill:#920203;stroke-width:4px;}</style></defs><title>Element 11</title><g id="Ebene_2" data-name="Ebene 2"><g id="Music_Search_1" data-name="Music Search #1"><g id="Layer_2" data-name="Layer 2"><g id="Layer_1-2" data-name="Layer 1-2" class="cls-1"><path class="cls-2" d="M13.07,52.64l4.06,1.12,4.48-5L17.34,29.8s19.05-17.92,38.32,0L51.18,48.72l4.48,5.38,3.57-1.23.46,3.25L53.08,69.55l-8.51,3.81-2.24,4.48h-12l-2.13-4.36L19.6,70.11l-7.06-15Z"/><path class="cls-3" d="M17.25,56.23s16,4.26,17.13,3.47L33,63.31l-6.16,3.11L20.15,64S16.13,58.58,17.25,56.23Z"/><path class="cls-3" d="M55.77,56.23s-17.14,4-17.47,3.58l1.85,3.5L46,66.42l6.83-3.11,2.91-4.55Z"/><path class="cls-3" d="M31.36,69.78l1.57,2.68h7.23l1.63-2.68s-3.92-6.61-5.21-5.71C36.56,64.07,35.83,62.16,31.36,69.78Z"/><path class="cls-4" d="M3,13.24,12,22.64s21.28-17.32,47.5-1.48l10.62-9.65S37.68-11,3,13.24Z"/></g></g></g></g></svg>