<svg xmlns="http://www.w3.org/2000/svg" viewBox="0 0 356.86 566.53"><defs><style>.cls-1{fill:#e03f75;}.cls-2{fill:#143e7c;}.cls-3{fill:#fff;}.cls-3,.cls-4,.cls-5{stroke:#fdffff;stroke-miterlimit:10;}.cls-5{fill:#920203;stroke-width:4px;}</style></defs><title>Asset 13</title><g id="Layer_2" data-name="Layer 2"><g id="Layer_1-2" data-name="Layer 1"><path class="cls-1" d="M57.48,310s-.73,102.87,0,100.68S117.3,468.3,117.3,468.3L60.39,566.53,187.34,461l-36.48-82.44,41.58-21.16s49.52-7.79,77.22-25.65c0,0,37-24.85,45.81-39.08,0,0,25.11-32.1,30.8-54.35,0,0,15.79-43,8.8-84.12,0,0-6.73-48.14-29.25-74.54,0,0-26.92-41.93-59.53-55.65,0,0-31.84-21.87-79.72-23.88,0,0-51-2.52-80,15.08,0,0-37.27,15-60.31,43.23,0,0-30,34.42-34.68,57.46,0,0-13.46,34.17-11.39,60.83,0,0-1.81,28.21,9.32,60.83C9.53,237.54,22.33,281,57.48,310Z"/><path class="cls-2" d="M118.88,41.81S47.93,51.84,31,164.21c0,0-5.25,54,9,78.58l9.19,16,8.49,13.47L68.57,285.3l11.7,11.25,11,9.4,14,9.48,16.37,7.71,26.91,6.61L166,331.67l21.49-.75,17-4.19,16.32-6,16.51-8.34L253.93,302l10.69-9.43,12.1-12.1,9.82-13.66,8.2-11.71,6.91-15.72,5-11.16,2.17-8.84,3.49-14.21,2.79-11.37.42-15.64.28-12L314,149l-4.63-19.89L303,111.49l-8.33-14.1L289.39,88v12.39l-.89,9.83-.91,9.88-2.27,10.77-4.56,9.26-7.2,7.61-4.82-.51-7.69-1.22-5.2-3.62-6.53-6-5.45-5.69-3-6.43L239.65,117l3.08-7.89,5.75-6.35,5-7.82,2.94-7.32L254,77.34l-4.75-8.53-6.75-9.7L233,49.74l-6.09-6.18-4.45-5.11-9.6-7.38,2.4,7.29.34,9.46-.22,8.65-2.86,7-5.55,4-9.78,2.62-8.44.27-9.15.1h-9.51l-8.72-.13-10.46.78-10.13,2.53L131.29,78,124.13,84l-5.89,6.93-4.81,7.19-2.3,7.81-3.38,7.54L106,120.68l-.49,3.56-6-9.83-2.41-10.3L95.47,90.64l1.12-6.09L98.68,76l2.94-7.32,3.5-6.51,5.68-7.65,5.2-8.77Z"/><path class="cls-3" d="M107.69,188.26l11.37,3.14,12.54-14.11-12-53s53.34-50.16,107.26,0l-12.54,53,12.54,15,10-3.45,1.29,9.09-18.5,37.62-23.83,10.66-6.27,12.54H156l-6-12.23L126,237.16l-19.75-42Z"/><path class="cls-4" d="M119.37,198.29s44.83,11.91,48,9.72l-3.76,10.1-17.24,8.71-18.81-6.9S116.23,204.87,119.37,198.29Z"/><path class="cls-4" d="M227.21,198.29s-48,11.29-48.91,10l5.18,9.78,16.45,8.71,19.12-8.71,8.15-12.73Z"/><path class="cls-4" d="M158.87,236.22l4.39,7.52h20.23l4.53-7.52s-11-18.5-14.58-16C173.45,220.23,171.41,214.9,158.87,236.22Z"/><path class="cls-5" d="M89.82,270.81l18-20S76.8,223.23,85.31,180.66l-26-10.52S46.24,233.75,89.82,270.81Z"/><path class="cls-5" d="M287.14,168.82l-25,10.13s8.57,39.78-21.62,75.1l14.18,21.75S300,223.17,287.14,168.82Z"/><path class="cls-5" d="M104.84,283.83l18-19s43.07,35.06,96.16,3l21.5,19.53S175,332.91,104.84,283.83Z"/></g></g></svg>